# xmcd
#
# Track frame offsets:
#	150
#	22855
#	41902
#	59225
#	77677
#	96047
#	115805
#	134262
#	152840
#	171077
#	190512
#	205072
#	225692
#	244577
#	262037
#	278237
#	301120
#
# Disc length: 4294 seconds
#
# Revision: 14
# Processed by: cddbd v1.5.2PL0 Copyright (c) Steve Scherf et al.
# Submitted via: EZCDAudioConverter 2.4.0.1
#
DISCID=e110c411
DTITLE=Zezé Di Camargo and Luciano - Zezé Di Camargo and Luciano - Vol. 08
DYEAR=1998
DGENRE=Sertanejo
TTITLE0=Pra Não Pensar Em Você
TTITLE1=Flor De Flamboyant
TTITLE2=Imperfeito
TTITLE3=Dois Corações E Uma História
TTITLE4=Pior É Te Perder
TTITLE5=Amores Que Vem E Que Passam
TTITLE6=Volta Pro Meu Coração
TTITLE7=Quando A Cabeça Não Pensa
TTITLE8=Seca Malvada
TTITLE9=À Queima Roupa
TTITLE10=Sabor De Pecado
TTITLE11=Meu País
TTITLE12=Fim De Festa
TTITLE13=A Mais Louca Paixão
TTITLE14=Vida, Viola E Violeiro
TTITLE15=Deus Salve A América
TTITLE16=Felicidade, Que Saudade De Você
EXTD=
EXTT0=
EXTT1=
EXTT2=
EXTT3=
EXTT4=
EXTT5=
EXTT6=
EXTT7=
EXTT8=
EXTT9=
EXTT10=
EXTT11=
EXTT12=
EXTT13=
EXTT14=
EXTT15=
EXTT16=
PLAYORDER=
